<svg viewBox="0 0 26 16"><path d="M8,6.85714286 L8,9.6 L12.5371429,9.6 C12.3542857,10.7771429 11.1657143,13.0514286 8,13.0514286 C5.26857143,13.0514286 3.04,10.7885714 3.04,8 C3.04,5.21142857 5.26857143,2.94857143 8,2.94857143 C9.55428571,2.94857143 10.5942857,3.61142857 11.1885714,4.18285714 L13.36,2.09142857 C11.9657143,0.788571429 10.16,0 8,0 C3.57714286,0 0,3.57714286 0,8 C0,12.4228571 3.57714286,16 8,16 C12.6171429,16 15.68,12.7542857 15.68,8.18285714 C15.68,7.65714286 15.6228571,7.25714286 15.5542857,6.85714286 L8,6.85714286 L8,6.85714286 Z"></path><path d="M25.1428571,6.85714286 L22.8571429,6.85714286 L22.8571429,4.57142857 L20.5714286,4.57142857 L20.5714286,6.85714286 L18.2857143,6.85714286 L18.2857143,9.14285714 L20.5714286,9.14285714 L20.5714286,11.4285714 L22.8571429,11.4285714 L22.8571429,9.14285714 L25.1428571,9.14285714"></path></svg>