<svg viewBox="0 0 20 16"><path d="M19.6859415,1.89485061 C18.9620937,2.21601173 18.1826604,2.43341311 17.36617,2.53099668 C18.1999537,2.03072647 18.8410407,1.24017602 19.142438,0.296456419 C18.3617695,0.759669575 17.4971049,1.09565352 16.57809,1.27599784 C15.8418899,0.490388327 14.7919401,-8.8817842e-16 13.6295839,-8.8817842e-16 C11.3987493,-8.8817842e-16 9.59036517,1.80838416 9.59036517,4.03921871 C9.59036517,4.35543889 9.62618698,4.66424766 9.69536015,4.95946885 C6.3379912,4.79271211 3.36107465,3.18443604 1.36864047,0.741141048 C1.02153941,1.33775959 0.822666564,2.03072647 0.822666564,2.77063229 C0.822666564,4.17138887 1.53539721,5.40785918 2.61993361,6.13294218 C1.95661237,6.11194318 1.33405389,5.93036362 0.789315217,5.62773103 L0.789315217,5.67837567 C0.789315217,7.63498803 2.18142515,9.26796881 4.02933683,9.63853933 C3.69088242,9.73118197 3.33389948,9.78059137 2.96579943,9.78059137 C2.70516483,9.78059137 2.45194164,9.75465143 2.20612985,9.7077125 C2.71998765,11.3122829 4.21215163,12.4808153 5.97977303,12.5129314 C4.59754497,13.5962325 2.85586351,14.2422605 0.963483363,14.2422605 C0.637381302,14.2422605 0.316220181,14.223732 0,14.1854397 C1.78738516,15.3317378 3.91075427,16 6.19223346,16 C13.6221725,16 17.6848607,9.84482359 17.6848607,4.50737281 C17.6848607,4.33196943 17.6811549,4.15780128 17.6737435,3.98486837 C18.459353,3.41666023 19.1449085,2.70516483 19.6859415,1.89485061 L19.6859415,1.89485061 Z"></path></svg>