<svg viewBox="0 0 17 16"><path d="M8.20026429,0 C3.67215443,0 0,3.67211828 0,8.20360103 C0,11.827096 2.3491221,14.901993 5.60809312,15.9865046 C6.01810633,16.0615536 6.16816271,15.8089237 6.16816271,15.5911758 C6.16816271,15.3966825 6.16076557,14.8808524 6.15759536,14.1958977 C3.87610431,14.6916442 3.39528984,13.0965877 3.39528984,13.0965877 C3.02226235,12.1494898 2.48438419,11.8968599 2.48438419,11.8968599 C1.73938596,11.388429 2.54039115,11.3979423 2.54039115,11.3979423 C3.36358779,11.4560789 3.79684917,12.2435654 3.79684917,12.2435654 C4.52810986,13.4972016 5.7158801,13.1346407 6.18295701,12.925349 C6.2579852,12.3947205 6.46933221,12.0342736 6.7039274,11.82921 C4.88317285,11.6209754 2.9694256,10.9180512 2.9694256,7.77444731 C2.9694256,6.87914386 3.2885596,6.14662286 3.81375694,5.57371321 C3.72921813,5.36547852 3.44706986,4.53148275 3.8940688,3.40257592 C3.8940688,3.40257592 4.58306008,3.18165689 6.14914148,4.2439709 C6.8032605,4.0611049 7.50387587,3.97020042 8.20132103,3.96702933 C8.89770945,3.97020042 9.59938155,4.0611049 10.2545573,4.24291387 C11.8206387,3.18165689 12.5075165,3.40151889 12.5075165,3.40151889 C12.9545155,4.53042572 12.6734239,5.3644215 12.5888851,5.57265618 C13.1140825,6.14556583 13.4321597,6.87808683 13.4321597,7.77339028 C13.4321597,10.9243933 11.5152423,11.6178043 9.6881473,11.8207538 C9.98297639,12.0744407 10.2450467,12.5744154 10.2450467,13.3397043 C10.2450467,14.4358432 10.2344793,15.3205764 10.2344793,15.5901187 C10.2344793,15.8099808 10.3824222,16.0647247 10.7987759,15.9843905 C14.0545767,14.8977648 16.4015853,11.8249819 16.4015853,8.202544 C16.4015853,3.67317531 12.7294309,0 8.20026429,0 L8.20026429,0 Z"></path></svg>